<?xml version="1.0" encoding="UTF-8"?>
<svg xmlns="http://www.w3.org/2000/svg" xmlns:xlink="http://www.w3.org/1999/xlink" width="566.929pt" height="566.929pt" viewBox="0 0 566.929 566.929" version="1.1">
<defs>
<clipPath id="clip1">
  <path d="M 109 101 L 464 101 L 464 456 L 109 456 Z M 109 101 "/>
</clipPath>
<clipPath id="clip2">
  <path d="M 109.605469 278.023438 C 109.605469 335.273438 144.105469 383.015625 144.105469 383.015625 L 122.503906 447.445313 L 189.054688 425.734375 C 189.054688 425.734375 232.414063 455.015625 286.59375 455.015625 C 384.335938 455.015625 463.574219 375.773438 463.574219 278.023438 C 463.574219 180.285156 384.335938 101.042969 286.59375 101.042969 C 188.84375 101.042969 109.605469 180.285156 109.605469 278.023438 M 333.503906 376.464844 C 320.90625 372.945313 279.242188 362.046875 252.085938 336.714844 C 224.914063 311.375 202.914063 284.703125 193.914063 265.046875 C 184.914063 245.375 185.414063 233.703125 185.914063 228.203125 C 186.414063 222.703125 189.304688 197.222656 206.363281 186.304688 C 206.363281 186.304688 212.054688 182.695313 215.023438 182.695313 L 231.625 182.695313 C 231.625 182.695313 236.074219 183.464844 238.113281 188.105469 C 240.152344 192.742188 254.15625 225.625 255.195313 228.15625 C 256.234375 230.695313 258.953125 236.972656 254.59375 242.59375 C 250.234375 248.214844 241.125 258.714844 241.125 258.714844 C 241.125 258.714844 237.515625 261.953125 240.644531 267.136719 C 243.765625 272.304688 254.765625 289.363281 269.144531 302.253906 C 283.535156 315.144531 301.144531 324.625 309.925781 327.515625 C 318.703125 330.40625 320.636719 326.554688 323.996094 322.222656 C 327.363281 317.894531 337.835938 304.664063 337.835938 304.664063 C 337.835938 304.664063 341.445313 299.363281 348.535156 302.613281 C 355.636719 305.863281 390.15625 322.585938 390.15625 322.585938 C 390.15625 322.585938 394.367188 323.304688 394.605469 327.996094 C 394.84375 332.683594 397.734375 346.722656 385.222656 360.222656 C 375.023438 371.242188 355.445313 377.433594 341.734375 377.429688 C 338.632813 377.429688 335.828125 377.113281 333.503906 376.464844 "/>
</clipPath>
<linearGradient id="linear0" gradientUnits="userSpaceOnUse" x1="0.0430894" y1="0" x2="1.037477" y2="0" gradientTransform="matrix(112.837624,-421.115753,-421.115753,-112.837624,225.624832,505.550849)">
<stop offset="0" style="stop-color:rgb(25.001526%,73.049927%,34.292603%);stop-opacity:1;"/>
<stop offset="0.25" style="stop-color:rgb(25.018311%,73.054504%,34.301758%);stop-opacity:1;"/>
<stop offset="0.375" style="stop-color:rgb(25.112915%,73.086548%,34.355164%);stop-opacity:1;"/>
<stop offset="0.4375" style="stop-color:rgb(25.286865%,73.146057%,34.451294%);stop-opacity:1;"/>
<stop offset="0.5" style="stop-color:rgb(25.541687%,73.233032%,34.594727%);stop-opacity:1;"/>
<stop offset="0.53125" style="stop-color:rgb(25.813293%,73.324585%,34.747314%);stop-opacity:1;"/>
<stop offset="0.5625" style="stop-color:rgb(26.066589%,73.41156%,34.889221%);stop-opacity:1;"/>
<stop offset="0.59375" style="stop-color:rgb(26.376343%,73.516846%,35.066223%);stop-opacity:1;"/>
<stop offset="0.609375" style="stop-color:rgb(26.646423%,73.608398%,35.220337%);stop-opacity:1;"/>
<stop offset="0.625" style="stop-color:rgb(26.855469%,73.678589%,35.33783%);stop-opacity:1;"/>
<stop offset="0.640625" style="stop-color:rgb(27.084351%,73.756409%,35.469055%);stop-opacity:1;"/>
<stop offset="0.65625" style="stop-color:rgb(27.334595%,73.841858%,35.614014%);stop-opacity:1;"/>
<stop offset="0.671875" style="stop-color:rgb(27.607727%,73.934937%,35.772705%);stop-opacity:1;"/>
<stop offset="0.6875" style="stop-color:rgb(27.908325%,74.03717%,35.945129%);stop-opacity:1;"/>
<stop offset="0.703125" style="stop-color:rgb(28.234863%,74.14856%,36.134338%);stop-opacity:1;"/>
<stop offset="0.710938" style="stop-color:rgb(28.494263%,74.237061%,36.288452%);stop-opacity:1;"/>
<stop offset="0.71875" style="stop-color:rgb(28.678894%,74.301147%,36.39679%);stop-opacity:1;"/>
<stop offset="0.726563" style="stop-color:rgb(28.872681%,74.36676%,36.509705%);stop-opacity:1;"/>
<stop offset="0.734375" style="stop-color:rgb(29.072571%,74.435425%,36.627197%);stop-opacity:1;"/>
<stop offset="0.742188" style="stop-color:rgb(29.281616%,74.505615%,36.750793%);stop-opacity:1;"/>
<stop offset="0.75" style="stop-color:rgb(29.498291%,74.580383%,36.880493%);stop-opacity:1;"/>
<stop offset="0.757813" style="stop-color:rgb(29.724121%,74.658203%,37.014771%);stop-opacity:1;"/>
<stop offset="0.765625" style="stop-color:rgb(29.959106%,74.737549%,37.153625%);stop-opacity:1;"/>
<stop offset="0.773438" style="stop-color:rgb(30.203247%,74.821472%,37.301636%);stop-opacity:1;"/>
<stop offset="0.78125" style="stop-color:rgb(30.456543%,74.908447%,37.454224%);stop-opacity:1;"/>
<stop offset="0.789063" style="stop-color:rgb(30.718994%,74.998474%,37.612915%);stop-opacity:1;"/>
<stop offset="0.796875" style="stop-color:rgb(30.993652%,75.091553%,37.779236%);stop-opacity:1;"/>
<stop offset="0.804688" style="stop-color:rgb(31.277466%,75.189209%,37.95166%);stop-opacity:1;"/>
<stop offset="0.8125" style="stop-color:rgb(31.57196%,75.289917%,38.131714%);stop-opacity:1;"/>
<stop offset="0.820313" style="stop-color:rgb(31.877136%,75.395203%,38.317871%);stop-opacity:1;"/>
<stop offset="0.828125" style="stop-color:rgb(32.194519%,75.50354%,38.513184%);stop-opacity:1;"/>
<stop offset="0.835938" style="stop-color:rgb(32.522583%,75.616455%,38.716125%);stop-opacity:1;"/>
<stop offset="0.839844" style="stop-color:rgb(32.862854%,75.732422%,38.928223%);stop-opacity:1;"/>
<stop offset="0.84375" style="stop-color:rgb(33.035278%,75.791931%,39.03656%);stop-opacity:1;"/>
<stop offset="0.847656" style="stop-color:rgb(33.213806%,75.852966%,39.147949%);stop-opacity:1;"/>
<stop offset="0.851563" style="stop-color:rgb(33.392334%,75.915527%,39.260864%);stop-opacity:1;"/>
<stop offset="0.855469" style="stop-color:rgb(33.578491%,75.979614%,39.376831%);stop-opacity:1;"/>
<stop offset="0.859375" style="stop-color:rgb(33.764648%,76.043701%,39.494324%);stop-opacity:1;"/>
<stop offset="0.863281" style="stop-color:rgb(33.956909%,76.109314%,39.616394%);stop-opacity:1;"/>
<stop offset="0.867188" style="stop-color:rgb(34.147644%,76.174927%,39.736938%);stop-opacity:1;"/>
<stop offset="0.871094" style="stop-color:rgb(34.347534%,76.243591%,39.863586%);stop-opacity:1;"/>
<stop offset="0.875" style="stop-color:rgb(34.545898%,76.312256%,39.988708%);stop-opacity:1;"/>
<stop offset="0.878906" style="stop-color:rgb(34.751892%,76.382446%,40.12146%);stop-opacity:1;"/>
<stop offset="0.882813" style="stop-color:rgb(34.95636%,76.452637%,40.25116%);stop-opacity:1;"/>
<stop offset="0.886719" style="stop-color:rgb(35.169983%,76.527405%,40.388489%);stop-opacity:1;"/>
<stop offset="0.890625" style="stop-color:rgb(35.38208%,76.600647%,40.525818%);stop-opacity:1;"/>
<stop offset="0.894531" style="stop-color:rgb(35.601807%,76.675415%,40.667725%);stop-opacity:1;"/>
<stop offset="0.898438" style="stop-color:rgb(35.821533%,76.751709%,40.809631%);stop-opacity:1;"/>
<stop offset="0.902344" style="stop-color:rgb(36.048889%,76.829529%,40.957642%);stop-opacity:1;"/>
<stop offset="0.90625" style="stop-color:rgb(36.274719%,76.907349%,41.105652%);stop-opacity:1;"/>
<stop offset="0.910156" style="stop-color:rgb(36.509705%,76.989746%,41.259766%);stop-opacity:1;"/>
<stop offset="0.914063" style="stop-color:rgb(36.74469%,77.070618%,41.412354%);stop-opacity:1;"/>
<stop offset="0.917969" style="stop-color:rgb(36.987305%,77.154541%,41.572571%);stop-opacity:1;"/>
<stop offset="0.921875" style="stop-color:rgb(37.229919%,77.238464%,41.731262%);stop-opacity:1;"/>
<stop offset="0.925781" style="stop-color:rgb(37.480164%,77.323914%,41.897583%);stop-opacity:1;"/>
<stop offset="0.929688" style="stop-color:rgb(37.730408%,77.410889%,42.062378%);stop-opacity:1;"/>
<stop offset="0.933594" style="stop-color:rgb(37.989807%,77.500916%,42.234802%);stop-opacity:1;"/>
<stop offset="0.9375" style="stop-color:rgb(38.247681%,77.590942%,42.407227%);stop-opacity:1;"/>
<stop offset="0.941406" style="stop-color:rgb(38.514709%,77.682495%,42.58728%);stop-opacity:1;"/>
<stop offset="0.945313" style="stop-color:rgb(38.780212%,77.775574%,42.767334%);stop-opacity:1;"/>
<stop offset="0.949219" style="stop-color:rgb(39.056396%,77.870178%,42.953491%);stop-opacity:1;"/>
<stop offset="0.953125" style="stop-color:rgb(39.331055%,77.966309%,43.139648%);stop-opacity:1;"/>
<stop offset="0.957031" style="stop-color:rgb(39.614868%,78.063965%,43.331909%);stop-opacity:1;"/>
<stop offset="0.960938" style="stop-color:rgb(39.898682%,78.163147%,43.52417%);stop-opacity:1;"/>
<stop offset="0.96875" style="stop-color:rgb(39.950562%,78.181458%,43.559265%);stop-opacity:1;"/>
<stop offset="1" style="stop-color:rgb(40.000916%,78.198242%,43.59436%);stop-opacity:1;"/>
</linearGradient>
</defs>
<g id="surface1">
<path style=" stroke:none;fill-rule:nonzero;fill:rgb(13.729858%,12.159729%,12.548828%);fill-opacity:1;" d="M 0 566.929688 L 566.929688 566.929688 L 566.929688 0 L 0 0 Z M 0 566.929688 "/>
<path style=" stroke:none;fill-rule:nonzero;fill:rgb(100%,100%,100%);fill-opacity:1;" d="M 286.59375 455.011719 C 232.417969 455.011719 189.054688 425.734375 189.054688 425.734375 L 122.507813 447.449219 L 144.101563 383.019531 C 144.101563 383.019531 109.609375 335.269531 109.609375 278.027344 C 109.609375 180.28125 188.847656 101.042969 286.59375 101.042969 C 384.339844 101.042969 463.578125 180.28125 463.578125 278.027344 C 463.578125 375.773438 384.339844 455.011719 286.59375 455.011719 M 286.59375 67.332031 C 170.230469 67.332031 75.898438 161.664063 75.898438 278.027344 C 75.898438 335.78125 106.472656 387.402344 106.472656 387.402344 L 69.640625 499.597656 L 185.085938 462.703125 C 185.085938 462.703125 227.945313 488.722656 286.59375 488.722656 C 402.957031 488.722656 497.289063 394.390625 497.289063 278.027344 C 497.289063 161.664063 402.957031 67.332031 286.59375 67.332031 "/>
<g clip-path="url(#clip1)" clip-rule="nonzero">
<g clip-path="url(#clip2)" clip-rule="nonzero">
<path style=" stroke:none;fill-rule:nonzero;fill:url(#linear0);" d="M 439.863281 543.507813 L 21.113281 431.304688 L 133.316406 12.550781 L 552.070313 124.753906 Z M 439.863281 543.507813 "/>
</g>
</g>
<path style=" stroke:none;fill-rule:nonzero;fill:rgb(100%,100%,100%);fill-opacity:1;" d="M 394.605469 327.996094 C 394.84375 332.683594 397.734375 346.722656 385.222656 360.222656 C 372.714844 373.734375 346.105469 379.984375 333.503906 376.464844 C 320.90625 372.945313 279.246094 362.046875 252.085938 336.714844 C 224.914063 311.375 202.914063 284.703125 193.914063 265.042969 C 184.914063 245.375 185.414063 233.703125 185.914063 228.203125 C 186.414063 222.703125 189.304688 197.222656 206.363281 186.304688 C 206.363281 186.304688 212.054688 182.695313 215.023438 182.695313 L 231.625 182.695313 C 231.625 182.695313 236.074219 183.464844 238.113281 188.105469 C 240.15625 192.742188 254.15625 225.625 255.195313 228.152344 C 256.234375 230.695313 258.953125 236.972656 254.59375 242.59375 C 250.234375 248.214844 241.125 258.714844 241.125 258.714844 C 241.125 258.714844 237.515625 261.953125 240.644531 267.132813 C 243.765625 272.304688 254.765625 289.363281 269.144531 302.253906 C 283.535156 315.144531 301.144531 324.625 309.925781 327.515625 C 318.707031 330.40625 320.632813 326.554688 323.996094 322.222656 C 327.367188 317.894531 337.835938 304.664063 337.835938 304.664063 C 337.835938 304.664063 341.445313 299.363281 348.535156 302.613281 C 355.632813 305.863281 390.15625 322.585938 390.15625 322.585938 C 390.15625 322.585938 394.367188 323.304688 394.605469 327.996094 "/>
</g>
</svg>
